<?xml version="1.0" encoding="utf-8"?>
<!-- Generator: Adobe Illustrator 27.5.0, SVG Export Plug-In . SVG Version: 6.00 Build 0)  -->
<svg version="1.1" xmlns="http://www.w3.org/2000/svg" xmlns:xlink="http://www.w3.org/1999/xlink" x="0px" y="0px"
	 viewBox="0 0 500 500" style="enable-background:new 0 0 500 500;" xml:space="preserve">
<g id="BACKGROUND">
	<rect style="fill:#FFFFFF;" width="500" height="500"/>
</g>
<g id="OBJECT">
	<g>
		<path style="fill:#FFF3E6;" d="M258.724,112.473c-104.14,0-188.562,84.422-188.562,188.561c0,32.001,7.982,62.134,22.049,88.534
			h333.026c14.066-26.4,22.048-56.533,22.048-88.534C447.286,196.894,362.864,112.473,258.724,112.473z"/>
		<g>
			<path style="fill:#FFF3D9;" d="M435.134,266.614c0-23.032,0-69.299,0-89.371c0-27.273-17.78-67.927-62.327-67.927
				c-20.024,0-32.381,6.018-39.935,14.09c-0.567,0.285-1.127,0.581-1.677,0.892c-13.554,7.658-15.813,17.247-15.813,17.248
				c-10.117,12.969-11.665,28.52-11.665,28.52h6.059c-0.023,0.15-0.043,0.301-0.066,0.451c-0.096,0.646-0.176,1.302-0.254,1.959
				c-0.039,0.325-0.085,0.645-0.119,0.972c-0.104,0.989-0.191,1.988-0.255,3.002c-1.932,30.52,1.599,38.916,6.836,46.295
				c1.978,2.787,3.861,5.125,5.663,7.094c0,6.346,0,12.504,0,18.213c-8.444,2.504-18.074,4.738-29.365,5.682
				c-29.307,2.448-57.506-17.349-57.506-17.349c-0.882,0.796-1.732,1.666-2.556,2.582c-2.997-2.053-5.49-4.099-7.312-6.03
				c-12.926-13.704-17.596-21.965-22.399-18.337c-4.803,3.628,4.102,14.079,4.102,14.079s-8.816-0.989-18.571-0.726
				c-9.754,0.264-10.93,2.947-10.235,5.11c0.695,2.163,13.54,3.427,13.54,3.427s-15.756-0.51-15.892,3.927
				c-0.135,4.437,15.455,5.65,15.455,5.65s-14.609,2.761-14.269,6.325c0.34,3.564,16.113,2.091,16.113,2.091
				s-11.456,3.062-10.298,6.336c1.159,3.274,15.242,0.628,21.258,0.412c3.21-0.115,7.524,1.212,13.998,4.264
				c-1.218,3.376-1.85,5.588-1.85,5.588c5.39,2.937,10.602,5.589,15.654,7.991h-90.195c-4.376-5.142-10.89-8.407-18.171-8.407
				c-13.175,0-23.855,10.68-23.855,23.855c0,13.175,10.68,23.855,23.855,23.855c1.726,0,3.405-0.192,5.026-0.541v63.24
				c0,0.872,0.13,1.712,0.359,2.511h-13.383v1.58c0,6.397,4.702,5.878,10.508,5.878h286.208c0,0,0.465,1.947,1.222-5.054
				c25.614-12.522,33.609-29.38,34.83-54.859C448.87,309.941,444.067,282.907,435.134,266.614z M295.447,382.57
				c0.439,0.339,0.921,0.678,1.447,1.016h-1.673C295.317,383.255,295.39,382.915,295.447,382.57z M319.023,137.404
				c-1.322,1.334-2.533,2.722-3.641,4.141C316.128,140.154,317.384,138.753,319.023,137.404z M308.417,366.288
				c-4.436-1.017-9.577-2.517-12.837-3.114v-65.129c2.05,0.159,4.056,0.265,6.012,0.314c-2.255,14.401,17.603,24.524,17.603,24.524
				c0.772,10.611,0.417,28.601-0.149,44.236C315.566,367.169,311.46,366.985,308.417,366.288z"/>
			<polygon style="fill:#FFF3D9;" points="213.893,174.529 213.893,155.982 213.893,139.355 213.893,122.155 206.038,118.896 
				206.038,93.349 155.162,93.349 155.162,118.896 147.306,122.155 147.306,139.355 147.306,155.982 147.306,174.529 180.6,174.529 
							"/>
			<path style="fill:#FFF3D9;" d="M251.389,154.016c0.059,0.008,0.119,0.013,0.179,0.013h33.522c0.051,0,0.101-0.003,0.152-0.009
				c3.358-0.412,5.796-2.962,5.796-6.063V82.733c0-3.167-2.577-5.744-5.744-5.744h-33.522c-3.167,0-5.744,2.577-5.744,5.744v65.223
				C246.028,150.918,248.383,153.58,251.389,154.016z"/>
			<path style="fill:#FFF3D9;" d="M143.168,251.307c-2.426-3.425-2.522-7.819-2.335-10.28h6.554c3.348,0,6.061-2.714,6.061-6.061
				v-27.53c0-3.348-2.714-6.061-6.061-6.061h-41.27v-10.202c0-3.347-2.714-6.061-6.061-6.061H51.073
				c-3.348,0-6.061,2.714-6.061,6.061v27.53c0,3.348,2.714,6.061,6.061,6.061h6.554c0.187,2.461,0.091,6.855-2.336,10.28
				c0,0,15.85-1.473,20.003-10.28h17.048v10.202c0,3.348,2.714,6.061,6.061,6.061h24.761
				C127.318,249.834,143.168,251.307,143.168,251.307z"/>
		</g>
		<g>
			<path style="fill:#5E382E;" d="M442.134,170.243c0-27.273-17.78-67.927-62.327-67.927c-44.547,0-51.227,29.75-51.227,45.75
				s0,125.084,0,125.084h113.553C442.134,273.15,442.134,197.515,442.134,170.243z"/>
			<g>
				<path style="fill:#FFC1AC;stroke:#855A4C;stroke-miterlimit:10;" d="M322.53,246.652c-32.001,12.394-77.762-7.012-90.688-20.716
					c-12.926-13.704-17.596-21.965-22.399-18.337c-4.803,3.628,4.102,14.079,4.102,14.079s-8.816-0.989-18.571-0.726
					c-9.754,0.264-10.93,2.947-10.235,5.11c0.695,2.163,13.54,3.427,13.54,3.427s-15.756-0.51-15.892,3.927
					c-0.135,4.437,15.455,5.65,15.455,5.65s-14.609,2.761-14.269,6.325c0.34,3.564,16.113,2.091,16.113,2.091
					s-11.456,3.062-10.297,6.336c1.158,3.274,15.242,0.628,21.258,0.412c6.016-0.216,15.901,4.628,36.628,16.409
					c27.85,15.829,70.713,25.661,105.227,6.079c34.515-19.582,38.516-27.539,34.117-42.549
					C382.221,219.159,354.531,234.259,322.53,246.652z"/>
				<path style="fill:#FF6666;stroke:#B53E44;stroke-miterlimit:10;" d="M222.795,264.082c0,0,6.762-23.725,18.915-34.698
					c0,0,28.199,19.797,57.506,17.349c29.307-2.448,47.465-13.589,62.57-15.596c15.105-2.007,30.804,12.906,12.702,32.944
					C356.387,284.121,314.291,313.946,222.795,264.082z"/>
				<g>
					<path style="fill:#855A4C;" d="M210.619,243.542c0.313-2.847,1.717-5.64,3.963-7.583c0.551-0.5,1.196-0.877,1.825-1.267
						c0.686-0.286,1.34-0.645,2.071-0.782c0.703-0.229,1.44-0.275,2.162-0.335c0.36-0.044,0.726,0.016,1.085,0.033
						c0.36,0.022,0.717,0.056,1.07,0.098c-1.421,0.215-2.804,0.421-4.079,0.946c-0.654,0.21-1.243,0.561-1.847,0.865
						c-0.559,0.384-1.144,0.729-1.637,1.201c-1.036,0.874-1.92,1.933-2.682,3.086C211.807,240.969,211.139,242.209,210.619,243.542z
						"/>
				</g>
			</g>
			<g>
				<g>
					<path style="fill:#4DC7B8;" d="M330.919,315.436c0,0-18.929-10.41-15.373-25.424c3.556-15.014,36.33-56.758,36.33-56.758
						s15.807-4.869,31.611-3.684c15.805,1.185,34.401,8.543,41.793,13.971c7.766,5.704,8.984,8.372,6.71,26.943
						c-2.275,18.57-13.188,105.221-13.188,105.221h-87.882C330.919,375.706,332.5,337.167,330.919,315.436z"/>
				</g>
				<path style="fill:#FF6666;stroke:#B53E44;stroke-miterlimit:10;" d="M418.802,390.306c0,0,10.914-101.251,13.188-119.821
					c2.275-18.57,1.056-21.239-6.71-26.943c-7.391-5.429-25.988-12.786-41.792-13.971c-15.804-1.185-41.075,6.966-41.075,6.966
					s-30.045,38.65-33.601,53.665c-3.556,15.014,17.385,25.682,17.385,25.682c1.581,21.731-1.565,74.422-1.565,74.422h19.254
					c5.74-97.411,0.162-124.504,4.2-139.394c4.038-14.89,29.74-23.384,43.705-12.291c13.965,11.093-1.918,26.082-17.242,39.363
					c-15.324,13.282-9.7,93.193-10.514,112.322H418.802z"/>
				<g>
					<path style="fill:#B53E44;" d="M326.194,258.832c-3.238,4.776-6.404,9.604-9.347,14.567c-1.47,2.482-2.889,4.994-4.197,7.564
						c-1.297,2.571-2.52,5.195-3.379,7.941c-0.418,1.376-0.68,2.792-0.741,4.223c-0.056,1.433,0.137,2.866,0.488,4.251
						c0.701,2.787,2.184,5.317,3.941,7.574c3.603,4.48,8.303,8.017,13.326,10.758l0.005,0.003c0.06,0.033,0.095,0.093,0.1,0.156
						c0.442,6.203,0.489,12.416,0.483,18.624c-0.023,6.209-0.144,12.416-0.33,18.621c-0.364,12.41-0.915,24.812-1.61,37.209
						l-0.302-0.321l19.254-0.019l-0.32,0.302c1.685-29.576,2.768-59.192,2.701-88.815c-0.002-7.405-0.093-14.81-0.168-22.219
						c-0.035-7.407-0.224-14.827,0.455-22.258l0.378-2.778c0.131-0.926,0.382-1.836,0.568-2.755c0.408-1.84,1.165-3.629,2.152-5.242
						c1.981-3.248,4.848-5.853,8.022-7.849c6.37-3.989,14.042-5.851,21.541-5.137c3.739,0.38,7.456,1.476,10.682,3.478
						c1.611,0.993,3.123,2.158,4.408,3.574c1.279,1.407,2.358,3.07,2.893,4.941c0.547,1.864,0.562,3.855,0.185,5.727
						c-0.375,1.88-1.104,3.654-1.992,5.313c-1.8,3.318-4.167,6.245-6.67,8.997c-2.517,2.748-5.205,5.319-7.949,7.818
						c-1.375,1.246-2.76,2.48-4.158,3.698c-0.685,0.611-1.427,1.213-2.071,1.826c-0.656,0.596-1.207,1.312-1.727,2.045
						c-2.013,3.012-3.208,6.549-4.172,10.083c-0.952,3.555-1.611,7.193-2.149,10.844c-1.057,7.311-1.601,14.698-1.951,22.087
						c-0.343,7.392-0.468,14.795-0.489,22.198c-0.019,7.404,0.074,14.809,0.195,22.215c0.087,7.408,0.345,14.808,0.121,22.24
						l-0.334-0.348l54.768,0.053l-0.279,0.251l13.467-119.791l-12.908,119.851c-0.016,0.144-0.138,0.25-0.28,0.251l-54.768,0.053
						c-0.184,0-0.334-0.149-0.334-0.333v-0.002v-0.013c0.177-29.551-1.912-59.322,1.959-88.833c0.535-3.675,1.19-7.341,2.148-10.946
						c0.975-3.587,2.167-7.186,4.276-10.361c0.548-0.776,1.132-1.539,1.847-2.193c0.698-0.663,1.397-1.229,2.092-1.852
						c1.393-1.218,2.771-2.45,4.138-3.694c2.727-2.493,5.393-5.053,7.875-7.773c2.469-2.723,4.787-5.612,6.518-8.819
						c0.854-1.603,1.542-3.297,1.887-5.054c0.348-1.752,0.326-3.567-0.174-5.264c-1.023-3.42-3.834-6.075-6.888-7.945
						c-3.087-1.901-6.649-2.97-10.266-3.344c-7.248-0.709-14.753,1.092-20.936,4.954c-3.083,1.929-5.848,4.442-7.74,7.533
						c-0.945,1.543-1.656,3.207-2.054,4.981c-0.182,0.895-0.428,1.775-0.558,2.683l-0.376,2.726
						c-0.684,7.33-0.515,14.756-0.492,22.155c0.06,7.406,0.138,14.816,0.125,22.226c0.01,29.642-1.131,59.271-2.874,88.853
						c-0.01,0.171-0.152,0.302-0.321,0.303l-19.254-0.019c-0.167,0-0.303-0.136-0.303-0.303l0.001-0.017
						c0.718-12.387,1.293-24.786,1.681-37.189c0.2-6.201,0.325-12.405,0.37-18.607c0.041-6.201,0.029-12.41-0.377-18.594
						l0.105,0.159c-2.559-1.381-4.96-3.007-7.227-4.81c-2.254-1.814-4.363-3.829-6.151-6.114c-1.763-2.29-3.251-4.86-3.947-7.694
						c-0.348-1.408-0.537-2.865-0.471-4.319c0.07-1.452,0.345-2.889,0.774-4.272c0.881-2.761,2.121-5.382,3.435-7.95
						c1.325-2.566,2.759-5.073,4.244-7.547C319.737,268.401,322.93,263.59,326.194,258.832z"/>
				</g>
				<path style="fill:#DD4C65;stroke:#B53E44;stroke-linecap:round;stroke-linejoin:round;stroke-miterlimit:10;" d="
					M379.688,227.783c-18.641,0-61.573-2.563-38.345,20.442c0,0-23.227,3.572,5.156,28.018
					C346.498,276.242,349.629,235.938,379.688,227.783z"/>
				<path style="fill:#DD4C65;stroke:#B53E44;stroke-linecap:round;stroke-linejoin:round;stroke-miterlimit:10;" d="
					M388.075,227.084c27.856,4.997,40.777,13.98,10.151,29.378c0,0,16.819,14.038-23.678,21.522
					C374.547,277.984,401.565,255.155,388.075,227.084z"/>
				<g>
					<g>
						<path style="fill:#B53E44;" d="M341.342,317.596c-1.159,0.626-2.499,0.875-3.808,0.964c-1.319,0.099-2.641,0.001-3.938-0.192
							c-1.3-0.195-2.571-0.524-3.814-0.925c-0.617-0.215-1.226-0.451-1.829-0.696c-0.588-0.29-1.185-0.547-1.757-0.864
							c1.283,0.252,2.541,0.527,3.791,0.806c1.258,0.241,2.502,0.519,3.76,0.689c1.252,0.207,2.513,0.342,3.778,0.403
							C338.788,317.823,340.066,317.851,341.342,317.596z"/>
					</g>
					<g>
						<path style="fill:#B53E44;" d="M366.107,320.01c1.442,0.961,2.962,1.781,4.543,2.456c0.79,0.335,1.587,0.655,2.392,0.942
							c0.823,0.236,1.623,0.548,2.461,0.722c0.839,0.16,1.658,0.416,2.504,0.517c0.846,0.099,1.684,0.271,2.533,0.31l2.548,0.104
							l2.544-0.172c0.426-0.006,0.845-0.082,1.262-0.162l1.256-0.222l1.257-0.222l1.223-0.365c0.813-0.251,1.643-0.457,2.446-0.744
							l2.362-0.996c0.393-0.169,0.798-0.315,1.182-0.504l1.123-0.627l2.252-1.255c1.464-0.902,2.838-1.948,4.302-2.887
							c-1.319,1.115-2.645,2.247-4.033,3.297l-2.211,1.396l-1.109,0.698c-0.381,0.213-0.784,0.384-1.176,0.578l-2.379,1.119
							c-0.816,0.317-1.665,0.554-2.497,0.835l-1.258,0.394l-1.297,0.243l-1.298,0.241c-0.432,0.085-0.865,0.169-1.307,0.178
							c-3.506,0.402-7.08-0.017-10.434-1.015C371.944,323.862,368.759,322.251,366.107,320.01z"/>
					</g>
				</g>
			</g>
			<g>
				<path style="fill:#A1B3FF;stroke:#1F2F6D;stroke-miterlimit:10;" d="M302.581,281.171v92.904c0,5.022-4.069,9.092-9.092,9.092
					H144.202c-5.023,0-9.092-4.069-9.092-9.092v-92.904c0-5.023,4.069-9.098,9.092-9.098h149.286
					C298.511,272.073,302.581,276.149,302.581,281.171z"/>
				<rect x="146.065" y="283.028" style="fill:#FFFFFF;stroke:#1F2F6D;stroke-miterlimit:10;" width="145.561" height="89.185"/>
				<g>
					<rect x="150.049" y="288.263" style="fill:#A5B7C6;" width="95.578" height="6.006"/>
					<rect x="247.945" y="288.263" style="fill:#A5B7C6;" width="11.892" height="6.006"/>
					<rect x="261.847" y="288.263" style="fill:#A5B7C6;" width="11.892" height="6.006"/>
					<rect x="275.75" y="288.263" style="fill:#A5B7C6;" width="11.892" height="6.006"/>
					<rect x="150.049" y="298.777" style="fill:#A1B3FF;" width="33.63" height="31.111"/>
					<rect x="150.049" y="335.866" style="fill:#4DC7B8;" width="33.63" height="31.111"/>
					<rect x="247.945" y="298.777" style="fill:#FFC773;" width="39.697" height="68.2"/>
					<g>
						<rect x="188.369" y="298.777" style="fill:#DEE1EF;" width="57.259" height="3.486"/>
						<rect x="188.369" y="304.275" style="fill:#DEE1EF;" width="57.259" height="3.486"/>
						<rect x="188.369" y="309.772" style="fill:#DEE1EF;" width="57.259" height="3.486"/>
						<rect x="188.369" y="315.27" style="fill:#DEE1EF;" width="57.259" height="3.486"/>
						<rect x="188.369" y="320.768" style="fill:#DEE1EF;" width="57.259" height="3.486"/>
						<rect x="188.369" y="326.265" style="fill:#DEE1EF;" width="26.285" height="3.486"/>
					</g>
					<g>
						<rect x="188.369" y="335.935" style="fill:#DEE1EF;" width="57.259" height="3.486"/>
						<rect x="188.369" y="341.432" style="fill:#DEE1EF;" width="57.259" height="3.486"/>
						<rect x="188.369" y="346.93" style="fill:#DEE1EF;" width="57.259" height="3.486"/>
						<rect x="188.369" y="352.427" style="fill:#DEE1EF;" width="57.259" height="3.486"/>
						<rect x="188.369" y="357.925" style="fill:#DEE1EF;" width="57.259" height="3.486"/>
						<rect x="188.369" y="363.422" style="fill:#DEE1EF;" width="42.056" height="3.486"/>
					</g>
				</g>
				<path style="fill:#7A90EB;stroke:#1F2F6D;stroke-miterlimit:10;" d="M315.605,376.586v1.58c0,6.397-4.706,11.587-10.508,11.587
					H132.594c-5.806,0-10.508-5.189-10.508-11.587v-1.58H315.605z"/>
				<rect x="202.408" y="376.586" style="fill:#476CFF;stroke:#1F2F6D;stroke-miterlimit:10;" width="32.876" height="6.584"/>
			</g>
			<g>
				<path style="fill:#FFFFFF;stroke:#1F2F6D;stroke-linecap:round;stroke-linejoin:round;stroke-miterlimit:10;" d="
					M163.187,307.758c-14.761,4.91-19.944-0.341-19.944-0.341c-3.772,2.5-8.294,3.959-13.158,3.959
					c-13.175,0-23.855-10.68-23.855-23.855c0-13.175,10.68-23.855,23.855-23.855c13.175,0,23.855,10.68,23.855,23.855
					c0,3.782-0.884,7.355-2.45,10.533C151.489,298.053,153.536,305.944,163.187,307.758z"/>
				<g>
					<path style="fill:#1F2F6D;" d="M144.668,284.475c0,1.934-0.395,3.72-1.186,5.358c-0.791,1.638-1.877,2.918-3.259,3.839
						c-1.382,0.921-2.898,1.382-4.548,1.382c-1.934,0-3.179-0.734-3.737-2.201h-0.171c-0.546,0.739-1.18,1.291-1.903,1.655
						c-0.722,0.364-1.613,0.546-2.67,0.546c-1.331,0-2.417-0.475-3.259-1.425c-0.842-0.95-1.263-2.21-1.263-3.78
						c0-1.775,0.421-3.45,1.263-5.025c0.842-1.576,1.959-2.776,3.353-3.6c1.394-0.825,2.966-1.237,4.718-1.237
						c1.763,0,3.674,0.398,5.733,1.194l-1.706,7.064c-0.262,1.069-0.392,1.849-0.392,2.338c0,0.466,0.222,0.7,0.665,0.7
						c0.728,0,1.388-0.276,1.979-0.828c0.591-0.552,1.055-1.34,1.391-2.363c0.336-1.024,0.503-2.195,0.503-3.515
						c0-2.423-0.759-4.257-2.278-5.503c-1.519-1.246-3.694-1.868-6.527-1.868c-2.127,0-4.041,0.521-5.742,1.561
						c-1.701,1.041-3.02,2.508-3.959,4.402c-0.938,1.894-1.408,4.053-1.408,6.476c0,1.649,0.313,3.094,0.938,4.334
						c0.626,1.24,1.499,2.195,2.619,2.867c1.12,0.671,2.392,1.007,3.814,1.007c1.172,0,2.503-0.139,3.993-0.418
						c1.49-0.279,2.884-0.674,4.181-1.186v3.839c-1.024,0.489-2.295,0.89-3.814,1.203c-1.519,0.313-2.949,0.469-4.291,0.469
						c-2.378,0-4.468-0.475-6.271-1.425c-1.803-0.95-3.194-2.315-4.172-4.095c-0.978-1.78-1.468-3.842-1.468-6.185
						c0-3.276,0.666-6.183,1.996-8.72c1.331-2.537,3.239-4.513,5.725-5.93c2.486-1.416,5.247-2.124,8.284-2.124
						c4.038,0,7.192,0.99,9.462,2.969C143.533,278.23,144.668,280.971,144.668,284.475z M131.665,283.776
						c-0.83,0-1.561,0.27-2.193,0.81c-0.631,0.54-1.129,1.263-1.493,2.167c-0.364,0.904-0.546,1.823-0.546,2.756
						c0,1.183,0.444,1.775,1.331,1.775c0.694,0,1.26-0.293,1.698-0.879c0.438-0.586,0.862-1.658,1.271-3.216l0.802-3.242
						C132.274,283.832,131.984,283.776,131.665,283.776z"/>
				</g>
			</g>
			<g>
				<g>
					<path style="fill:#FFC1AC;stroke:#855A4C;stroke-miterlimit:10;" d="M372.64,387.72c-22.446,2.056-49.197,1.185-59.622-2.487
						c-10.424-3.672-6.16-7.003-6.16-7.003c-10.187-4.871-9.003-10.884-9.003-10.884c-1.825-3.599,0.592-5.923,0.592-5.923
						s-0.592-4.975,1.303-5.449c1.895-0.474,9.477,1.895,15.666,3.314c6.19,1.419,16.791,0.713,17.551,0.239
						c0.76-0.474-1.708-4.264-5.024-9.95c-3.316-5.686,2.132-9.476,5.024-6.723s16.224,16.673,16.224,16.673
						c57.194,2.335,66.343-12.768,63.578-35.708s3.644-37.574,18.987-36.781c15.863,0.82,18.259,15.272,18.675,43.591
						C450.741,351.757,438.867,381.655,372.64,387.72z"/>
					<g>
						<path style="fill:#855A4C;" d="M318.115,366.538c-3.413-0.194-6.774-0.778-10.092-1.556c-1.655-0.404-3.302-0.856-4.914-1.428
							c-1.611-0.562-3.209-1.22-4.661-2.132c1.613,0.557,3.255,0.953,4.887,1.385c1.636,0.413,3.275,0.819,4.922,1.203
							C311.541,364.814,314.839,365.57,318.115,366.538z"/>
					</g>
					<g>
						<path style="fill:#855A4C;" d="M318.756,372.538c-1.827,0.215-3.672,0.251-5.51,0.159c-1.839-0.082-3.675-0.298-5.49-0.658
							c-1.807-0.38-3.613-0.845-5.314-1.612c-1.698-0.742-3.327-1.732-4.587-3.082c1.515,1.052,3.18,1.753,4.87,2.355
							c1.696,0.595,3.457,1.004,5.225,1.359c1.767,0.371,3.563,0.625,5.363,0.863C315.117,372.143,316.927,372.366,318.756,372.538z
							"/>
					</g>
					<g>
						<path style="fill:#855A4C;" d="M318.115,380.053c-1.017,0.21-2.05,0.26-3.078,0.241c-1.029-0.013-2.054-0.13-3.07-0.296
							c-2.022-0.358-4.03-0.992-5.781-2.101c1.026,0.165,2.003,0.396,2.995,0.576c0.988,0.184,1.968,0.382,2.958,0.54
							C314.112,379.371,316.09,379.655,318.115,380.053z"/>
					</g>
				</g>
				<path style="fill:#FF6666;" d="M351.876,357.432c0,0-3.526,19.359-0.44,33.806c0,0,40.771,0.932,67.365-11.65
					c26.594-12.582,34.812-29.573,36.053-55.456c1.24-25.884-6.196-60.499-19.245-73.589c-13.049-13.09-34.266-11.299-29.715,36.056
					c4.04,42.043,10.333,49.65-2.844,61.533C395.506,354.934,351.876,357.432,351.876,357.432z"/>
				<g>
					<path style="fill:#B53E44;" d="M405.895,286.598c0.965,9.68,2.31,19.313,3.722,28.936c0.665,4.816,1.416,9.634,1.569,14.521
						c0.132,2.44-0.114,4.907-0.648,7.307c-0.599,2.405-1.785,4.609-3.211,6.613l-1.191,1.406l-0.596,0.703
						c-0.211,0.222-0.436,0.43-0.653,0.646c-0.886,0.838-1.695,1.774-2.785,2.438c-2.134,1.3-4.488,2.047-6.831,2.724
						c-4.708,1.318-9.516,2.157-14.328,2.904c-9.636,1.437-19.329,2.368-29.047,3.012l0.349-0.308
						c-0.919,5.558-1.445,11.204-1.622,16.841c-0.073,2.821-0.027,5.641,0.134,8.453c0.199,2.809,0.547,5.603,1.107,8.352
						l-0.419-0.347c9.003,0.068,18.036-0.5,26.99-1.525c8.952-1.044,17.866-2.577,26.517-5.08
						c8.644-2.47,16.998-6.066,24.497-11.044c0.923-0.639,1.902-1.201,2.779-1.902l2.671-2.051c0.876-0.701,1.682-1.483,2.527-2.221
						c0.861-0.722,1.625-1.544,2.394-2.36c3.081-3.246,5.808-6.867,7.827-10.878c2.055-3.989,3.553-8.25,4.624-12.614
						c1.094-4.366,1.625-8.854,2.025-13.337c0.39-4.493,0.414-9.005,0.337-13.513c-0.183-4.505-0.451-9.012-1.024-13.488
						c-0.5-4.484-1.278-8.932-2.133-13.362c-0.511-2.197-0.918-4.42-1.53-6.593l-0.858-3.274l-0.991-3.236l-0.5-1.617l-0.569-1.594
						c-0.387-1.06-0.743-2.132-1.155-3.182c-0.872-2.081-1.696-4.185-2.741-6.187c-2.015-4.024-4.359-7.949-7.523-11.199
						c3.198,3.216,5.59,7.124,7.652,11.134c1.069,1.997,1.917,4.095,2.814,6.172c0.424,1.048,0.793,2.118,1.191,3.177l0.588,1.592
						l0.518,1.615c2.789,8.609,4.69,17.502,5.759,26.49c0.591,4.489,0.877,9.011,1.077,13.534c0.094,4.525,0.087,9.063-0.289,13.579
						c-0.386,4.51-0.904,9.031-1.992,13.446c-1.066,4.412-2.565,8.735-4.637,12.791c-2.035,4.079-4.793,7.772-7.909,11.078
						c-0.778,0.831-1.551,1.668-2.421,2.404c-0.854,0.751-1.671,1.548-2.555,2.261l-2.698,2.087
						c-0.887,0.713-1.873,1.286-2.805,1.935c-7.555,5.057-15.984,8.72-24.694,11.244c-8.713,2.533-17.662,4.176-26.664,5.162
						c-9.004,0.997-18.049,1.534-27.121,1.433c-0.208-0.002-0.38-0.151-0.419-0.347c-0.561-2.805-0.902-5.64-1.093-8.482
						c-0.153-2.843-0.189-5.689-0.105-8.53c0.2-5.683,0.746-11.338,1.696-16.952c0.029-0.173,0.174-0.298,0.342-0.308l0.007,0
						c9.692-0.607,19.383-1.503,28.994-2.9c4.798-0.726,9.595-1.547,14.263-2.836c2.319-0.659,4.655-1.401,6.689-2.633
						c1.003-0.6,1.815-1.52,2.693-2.347c0.215-0.212,0.438-0.416,0.646-0.634l0.585-0.686l1.172-1.372
						c1.395-1.95,2.552-4.079,3.143-6.414c0.522-2.337,0.783-4.75,0.683-7.171c-0.1-4.841-0.798-9.668-1.412-14.487
						C408.001,305.939,406.757,296.286,405.895,286.598z"/>
				</g>
			</g>
			<g>
				<g>
					<path style="fill:#FFC1AC;" d="M396.283,188.461c0.016,0-3.51,38.015-4.442,54.236c-0.473,8.229-6.483,16.425-25.734,12.838
						c-9.84-1.834-10.067-10.277-10.067-10.277v-27.557"/>
					<path style="fill:#855A4C;" d="M396.283,188.461l-2.49,32.603l-1.17,16.302l-0.258,4.076c-0.068,1.341-0.139,2.766-0.461,4.129
						c-0.585,2.739-1.996,5.353-4.123,7.241c-2.125,1.899-4.831,2.981-7.545,3.53c-2.732,0.553-5.522,0.599-8.263,0.4
						c-1.375-0.088-2.737-0.274-4.095-0.474c-1.344-0.227-2.72-0.455-4.044-0.928c-2.647-0.88-5.047-2.667-6.449-5.098
						c-0.71-1.203-1.171-2.539-1.397-3.905c-0.13-0.683-0.111-1.395-0.103-2.066l0.01-2.044l0.042-8.175l0.103-16.35l0.104,16.348
						l0.042,8.174l0.01,2.043l0.007,1.016c0.027,0.327,0.08,0.661,0.148,0.988c0.273,1.312,0.793,2.566,1.49,3.696
						c1.403,2.275,3.697,3.884,6.233,4.653c1.259,0.417,2.594,0.582,3.933,0.808c1.338,0.186,2.68,0.358,4.026,0.434
						c2.686,0.175,5.401,0.104,8.012-0.447c2.604-0.539,5.109-1.608,7.08-3.342c1.975-1.728,3.303-4.125,3.877-6.705
						c0.314-1.293,0.393-2.603,0.469-3.98l0.278-4.081c0.383-5.44,0.854-10.87,1.344-16.299
						C394.056,210.148,395.127,199.3,396.283,188.461z"/>
				</g>
				<g>
					<path style="fill:#FFC1AC;" d="M347.066,232.592c19.274,0.128,44.866-16.731,46.546-31.605
						c2.763-24.461,3.532-72.717-26.004-77.117c-29.536-4.4-49.595,15.059-51.527,45.58c-1.932,30.52,1.599,38.916,6.836,46.295
						C332.853,229.742,340.775,232.55,347.066,232.592z"/>
					<g>
						<path style="fill:#855A4C;" d="M317.931,157.333c-1.048,4.629-1.6,9.344-1.713,14.079c-0.247,4.732-0.332,9.471-0.274,14.2
							c0.092,4.726,0.303,9.46,1.072,14.105c0.736,4.641,2.135,9.187,4.609,13.162c1.21,1.997,2.627,3.896,4.059,5.766
							c1.429,1.875,2.988,3.641,4.611,5.339c3.291,3.319,7.129,6.235,11.615,7.547c2.24,0.632,4.582,0.821,6.932,0.69
							c2.349-0.098,4.689-0.434,6.997-0.923c4.63-0.941,9.112-2.554,13.44-4.484c-4.233,2.136-8.699,3.851-13.333,4.962
							c-2.318,0.547-4.682,0.928-7.07,1.076c-2.377,0.179-4.829,0.035-7.17-0.579c-4.724-1.254-8.68-4.307-12.058-7.649
							c-1.664-1.718-3.259-3.503-4.717-5.391c-1.461-1.884-2.901-3.782-4.16-5.836c-2.528-4.116-3.939-8.826-4.652-13.535
							c-0.736-4.723-0.969-9.493-0.941-14.245c0.035-4.753,0.206-9.5,0.553-14.234C316.008,166.647,316.664,161.906,317.931,157.333
							z"/>
					</g>
					<path style="fill:#EA7E96;" d="M331.86,188.442c0,0.913-2.535,1.652-5.663,1.652c-3.128,0-5.663-0.74-5.663-1.652
						c0-0.913,2.535-1.653,5.663-1.653C329.325,186.789,331.86,187.529,331.86,188.442z"/>
					<path style="fill:#EA7E96;" d="M371.988,188.442c0,0.913-2.535,1.652-5.663,1.652c-3.128,0-5.663-0.74-5.663-1.652
						c0-0.913,2.535-1.653,5.663-1.653C369.453,186.789,371.988,187.529,371.988,188.442z"/>
				</g>
				<g>
					<path style="fill:#1D262D;" d="M359.552,178.781c0.089,3.325,1.628,5.981,3.437,5.932c1.809-0.048,3.203-2.783,3.114-6.107
						c-0.089-3.325-1.628-5.98-3.437-5.932C360.857,172.722,359.463,175.457,359.552,178.781z"/>
					<path style="fill:#1D262D;" d="M328.585,178.781c0.089,3.325,1.628,5.98,3.437,5.932c1.809-0.048,3.203-2.783,3.114-6.108
						c-0.089-3.325-1.628-5.98-3.437-5.932C329.89,172.722,328.496,175.457,328.585,178.781z"/>
					<g>
						<path style="fill:#855A4C;" d="M344.531,178.089c-0.034,3.313-0.399,6.662-1.591,9.848c-0.309,0.791-0.684,1.574-1.23,2.275
							c-0.533,0.694-1.253,1.352-2.193,1.614c-1.717,0.454-3.472,0.299-5.041,0.348c-0.392,0.011-0.743,0.079-1.049,0.185
							c-0.284,0.13-0.496,0.329-0.667,0.605c-0.154,0.296-0.258,0.647-0.329,1.02l-0.076,0.576c-0.01,0.186,0.014,0.349,0.013,0.526
							c0.067,0.685,0.427,1.332,0.994,1.824c0.589,0.459,1.264,0.863,2.022,1.097c1.495,0.524,3.16,0.59,4.747,0.327
							c1.597-0.241,3.149-0.901,4.399-1.998c-1.093,1.264-2.667,2.065-4.302,2.478c-1.649,0.374-3.403,0.405-5.071-0.073
							c-0.842-0.207-1.643-0.616-2.361-1.163c-0.704-0.57-1.253-1.432-1.369-2.39c-0.012-0.236-0.042-0.487-0.027-0.713l0.08-0.656
							c0.079-0.441,0.199-0.891,0.427-1.333c0.249-0.44,0.655-0.83,1.134-1.039c0.471-0.179,0.944-0.256,1.379-0.272
							c0.88-0.038,1.691,0.025,2.499,0.004c0.795-0.014,1.617-0.1,2.346-0.263c0.679-0.163,1.275-0.65,1.758-1.245
							c0.485-0.598,0.875-1.301,1.211-2.032c0.665-1.471,1.104-3.063,1.456-4.667C344.068,181.368,344.32,179.733,344.531,178.089z"
							/>
					</g>
				</g>
				<path style="fill:#5E382E;" d="M359.807,117.315c-44.547,0-49.091,45.75-49.091,45.75h18.918
					c0.704-4.806,2.192-14.459,3.101-16.773l1.502,16.773h20.355l1.673-18.838l4.016,18.838h39.665
					C399.948,163.066,404.354,117.315,359.807,117.315z"/>
				<path style="fill:#4DC7B8;" d="M394.277,182.299c0,0,4.284-37.837-14.59-53.449c-18.874-15.612-51.779-4.622-57.305,5.696
					c0,0,2.258-9.59,15.813-17.248c16.91-9.553,42.191-6.972,56.638,5.953c17.533,15.687,15.555,53.513,15.555,53.513
					L394.277,182.299z"/>
				<g>
					<g>
						<path style="fill:#FFC1AC;" d="M393.613,180.899c0,0,5.373-15.194,15.556-9.644c10.183,5.551,5.781,32.784-15.558,25.447"/>
						<path style="fill:#855A4C;" d="M393.613,180.899c0.859-2.54,2.13-4.954,3.803-7.094c0.866-1.042,1.843-2.024,3.013-2.766
							c1.156-0.752,2.505-1.273,3.917-1.362c1.408-0.113,2.833,0.178,4.103,0.745c1.275,0.523,2.484,1.383,3.384,2.451
							c1.821,2.153,2.735,4.907,2.983,7.636c0.244,2.744-0.132,5.526-1.06,8.11c-0.931,2.574-2.465,4.992-4.638,6.716
							c-2.162,1.725-4.875,2.698-7.596,2.8c-2.724,0.114-5.418-0.454-7.911-1.433c2.563,0.765,5.245,1.219,7.877,0.944
							c2.63-0.197,5.164-1.214,7.141-2.905c3.972-3.422,5.681-8.992,5.192-14.141c-0.201-2.584-1.047-5.167-2.677-7.137
							c-0.821-0.986-1.844-1.74-3.042-2.253c-1.173-0.527-2.441-0.824-3.711-0.771c-2.585,0.065-4.882,1.721-6.603,3.679
							C396.032,176.102,394.678,178.445,393.613,180.899z"/>
					</g>
					<g>
						<path style="fill:#855A4C;" d="M408.976,176.28c-0.471-0.266-0.914-0.564-1.381-0.807c-0.495-0.186-0.955-0.455-1.474-0.517
							c-0.499-0.143-1.008-0.136-1.508-0.141l-0.736,0.138c-0.241,0.059-0.466,0.179-0.698,0.262
							c-0.901,0.428-1.662,1.123-2.312,1.905c-0.635,0.79-1.195,1.695-1.597,2.605l-0.724-0.596
							c1.174-0.753,2.416-1.284,3.744-1.651c1.318-0.357,2.75-0.477,4.123-0.143c0.333,0.119,0.684,0.182,0.994,0.351
							c0.309,0.172,0.62,0.336,0.918,0.517l0.786,0.688c0.268,0.221,0.432,0.535,0.65,0.797c0.217,0.267,0.403,0.551,0.527,0.869
							l0.422,0.916c0.228,0.627,0.373,1.282,0.541,1.916c-0.285-0.601-0.514-1.217-0.803-1.797c-0.367-0.537-0.63-1.141-1.097-1.581
							c-0.221-0.225-0.389-0.505-0.649-0.683l-0.746-0.56l-0.838-0.389c-0.278-0.128-0.595-0.153-0.887-0.237
							c-1.207-0.236-2.472-0.069-3.683,0.27c-1.206,0.347-2.401,0.89-3.46,1.534l-1.372,0.836l0.648-1.432
							c0.473-1.045,1.072-1.966,1.817-2.812c0.735-0.84,1.648-1.572,2.726-1.976c1.066-0.428,2.299-0.432,3.335-0.028
							c0.546,0.139,0.994,0.479,1.473,0.732C408.166,175.565,408.563,175.942,408.976,176.28z"/>
					</g>
					<path style="fill:#EA7E96;" d="M398.277,194.268c0.213,0.787,1.023,1.252,1.81,1.039c0.787-0.213,1.252-1.023,1.039-1.81
						c-0.213-0.787-1.023-1.252-1.81-1.039C398.53,192.671,398.065,193.481,398.277,194.268z"/>
				</g>
				<path style="fill:#5E382E;" d="M322.918,172.673c0,0,5.042-3.127,9.702-2.379c4.66,0.748,7.272-0.417,5.966-2.514
					C337.28,165.683,328.128,163.12,322.918,172.673z"/>
				<path style="fill:#5E382E;" d="M370.829,172.673c0,0-5.042-3.127-9.702-2.379c-4.66,0.748-7.272-0.417-5.966-2.514
					C356.467,165.683,365.618,163.12,370.829,172.673z"/>
				<g>
					<path style="fill:#855A4C;" d="M337.629,212.379c0.994,0.404,1.998,0.752,3.032,0.984c0.51,0.136,1.031,0.23,1.543,0.343
						c0.522,0.067,1.04,0.157,1.561,0.205c2.083,0.19,4.189,0.11,6.201-0.408c0.515-0.076,1-0.27,1.494-0.425
						c0.493-0.161,0.993-0.306,1.456-0.548l1.424-0.644l1.349-0.801l0.681-0.397c0.216-0.149,0.42-0.316,0.631-0.473l1.262-0.958
						c0.831-0.657,1.566-1.428,2.398-2.116c-0.661,0.837-1.334,1.686-2.068,2.479l-1.202,1.092c-0.203,0.18-0.399,0.369-0.608,0.543
						l-0.667,0.471c-0.445,0.315-0.89,0.633-1.351,0.927l-1.466,0.743c-0.479,0.272-1.009,0.427-1.528,0.608
						c-0.521,0.172-1.032,0.384-1.578,0.472c-2.138,0.523-4.384,0.579-6.532,0.194C341.516,214.301,339.432,213.553,337.629,212.379
						z"/>
				</g>
				<g>
					<path style="fill:#855A4C;" d="M358.845,204.77c0.719,0.668,1.415,1.207,2.172,1.69c0.379,0.236,0.765,0.467,1.172,0.676
						c0.405,0.214,0.823,0.421,1.258,0.664c-0.49,0.044-0.993,0.019-1.468-0.117c-0.485-0.111-0.935-0.336-1.365-0.589
						C359.79,206.549,359.059,205.756,358.845,204.77z"/>
				</g>
			</g>
		</g>
		<g>
			<polygon style="fill:#FFB84D;stroke:#AD6800;stroke-miterlimit:10;" points="220.893,148.982 154.306,148.982 154.306,115.155 
				187.6,101.344 220.893,115.155 			"/>
			<g>
				<rect x="162.162" y="86.349" style="fill:#FFFFFF;stroke:#A5B7C6;stroke-miterlimit:10;" width="50.876" height="71.825"/>
				<g>
					<rect x="166.825" y="93.18" style="fill:#DEE1EF;" width="41.549" height="2.922"/>
					<rect x="166.825" y="99.023" style="fill:#DEE1EF;" width="41.549" height="2.921"/>
					<rect x="166.825" y="104.866" style="fill:#DEE1EF;" width="41.549" height="2.922"/>
					<rect x="166.825" y="110.709" style="fill:#DEE1EF;" width="41.549" height="2.922"/>
					<rect x="166.825" y="116.552" style="fill:#DEE1EF;" width="41.549" height="2.922"/>
					<rect x="166.825" y="122.395" style="fill:#DEE1EF;" width="20.775" height="2.921"/>
					<rect x="166.825" y="134.082" style="fill:#DEE1EF;" width="15.631" height="2.922"/>
					<rect x="166.825" y="139.925" style="fill:#DEE1EF;" width="11.396" height="2.922"/>
				</g>
			</g>
			<polygon style="fill:#FFC773;stroke:#AD6800;stroke-miterlimit:10;" points="154.306,167.529 154.306,132.355 187.6,148.234 
				187.6,167.529 			"/>
			<polygon style="fill:#FFC773;stroke:#AD6800;stroke-miterlimit:10;" points="220.893,167.529 220.893,132.355 187.6,148.234 
				187.6,167.529 			"/>
			<polygon style="fill:#FFC773;stroke:#AD6800;stroke-miterlimit:10;" points="220.893,167.529 154.306,167.529 187.6,139.503 			
				"/>
		</g>
		<g>
			<path style="fill:#1F2F6D;" d="M258.567,147.028c-0.06,0-0.119-0.004-0.179-0.013c-3.006-0.435-5.361-3.097-5.361-6.06V75.733
				c0-3.167,2.577-5.744,5.744-5.744h33.522c3.167,0,5.744,2.577,5.744,5.744v65.223c0,3.101-2.438,5.651-5.796,6.064
				c-0.051,0.006-0.101,0.009-0.152,0.009H258.567z"/>
			<path style="fill:#266193;" d="M258.567,145.782c-2.275-0.329-4.293-2.347-4.293-4.826V75.733c0-2.48,2.017-4.497,4.497-4.497
				h33.522c2.48,0,4.497,2.018,4.497,4.497v65.222c0,2.479-2.017,4.497-4.702,4.826H258.567z"/>
			<path style="fill:#DEE4FF;" d="M292.294,72.996h-8.201v0.889c0,0.831-0.674,1.505-1.505,1.505h-13.346
				c-0.831,0-1.505-0.674-1.505-1.505v-0.889h-8.964c-1.512,0-2.737,1.226-2.737,2.737v65.223c0,1.512,1.225,2.737,2.737,2.737
				h33.522c1.512,0,2.737-1.225,2.737-2.737V75.733C295.031,74.221,293.806,72.996,292.294,72.996z"/>
			<g>
				<path style="fill:#266193;" d="M286.64,127.201c-3.809,2.453-6.402,2.512-9.688-0.54c-3.038-2.823-5.852-5.982-8.282-9.342
					c-3.479-4.81-5.858-10.231-6.914-16.128c-0.906-5.055,0.064-7.098,4.38-9.435c1.789,3.091,3.601,6.183,5.346,9.314
					c0.132,0.237-0.242,0.735-0.338,1.122c-0.37,1.484-1.17,3.027-0.996,4.448c0.435,3.538,2.102,6.619,4.678,9.138
					c1.512,1.479,3.217,2.446,5.477,1.936c0.334-0.075,0.958,0.231,1.144,0.542C283.199,121.187,284.885,124.156,286.64,127.201z"/>
				<path style="fill:#266193;" d="M292.49,124.214c-0.254,0.31-0.533,0.794-0.942,1.113c-0.545,0.424-1.217,0.682-1.789,1.077
					c-1.359,0.941-2.265,0.625-3.048-0.816c-1.423-2.617-2.934-5.187-4.465-7.743c-0.826-1.379-0.66-2.36,0.856-3.056
					c0.63-0.289,1.178-0.883,1.82-0.986c0.621-0.1,1.663,0.034,1.919,0.443c1.884,3.006,3.62,6.105,5.395,9.179
					C292.327,123.585,292.353,123.783,292.49,124.214z"/>
				<path style="fill:#266193;" d="M277.796,98.798c-0.462,0.414-0.897,0.935-1.444,1.271c-3.2,1.968-3.206,1.952-5.078-1.287
					c-1.269-2.196-2.505-4.413-3.838-6.569c-0.842-1.362-0.51-2.233,0.85-2.895c0.569-0.277,1.112-0.611,1.652-0.941
					c1-0.613,1.764-0.462,2.37,0.594c1.639,2.86,3.315,5.7,4.963,8.555C277.457,97.849,277.56,98.219,277.796,98.798z"/>
			</g>
			<g>
				<path style="fill:#4A83B4;" d="M279.501,73.875h-9.428c-0.242,0-0.439-0.198-0.439-0.439l0,0c0-0.242,0.198-0.44,0.439-0.44
					h9.428c0.242,0,0.44,0.198,0.44,0.44l0,0C279.941,73.677,279.743,73.875,279.501,73.875z"/>
				<path style="fill:#4A83B4;" d="M282.195,73.44c0,0.245-0.199,0.444-0.444,0.444c-0.245,0-0.444-0.199-0.444-0.444
					c0-0.245,0.199-0.444,0.444-0.444C281.997,72.996,282.195,73.195,282.195,73.44z"/>
			</g>
			<g style="opacity:0.5;">
				<path style="fill:#FFFFFF;" d="M295.031,75.733c0-1.018-0.557-1.905-1.382-2.376l-37.615,55.538v12.061
					c0,1.282,0.882,2.354,2.071,2.652l36.926-54.521V75.733z"/>
				<path style="fill:#FFFFFF;" d="M256.034,121.961l33.163-48.965h-5.105v0.889c0,0.831-0.674,1.505-1.505,1.505h-11.013
					l-15.54,22.945V121.961z"/>
				<polygon style="fill:#FFFFFF;" points="295.031,107.886 295.031,94.986 262.043,143.693 270.78,143.693 				"/>
			</g>
		</g>
		<g>
			<g>
				<path style="fill:#4DC7B8;stroke:#318478;stroke-miterlimit:10;" d="M107.055,178.112H58.073c-3.348,0-6.061,2.714-6.061,6.061
					v27.53c0,3.348,2.714,6.061,6.061,6.061h6.554c0.187,2.461,0.091,6.855-2.335,10.28c0,0,15.85-1.473,20.003-10.28h24.761
					c3.348,0,6.061-2.714,6.061-6.061v-27.53C113.117,180.826,110.403,178.112,107.055,178.112z"/>
				<g>
					<path style="fill:#FFFFFF;" d="M93.647,197.346c0,3.048,2.471,5.519,5.519,5.519s5.519-2.471,5.519-5.519
						c0-3.048-2.471-5.519-5.519-5.519S93.647,194.298,93.647,197.346z"/>
					<path style="fill:#FFFFFF;" d="M77.045,197.346c0,3.048,2.471,5.519,5.519,5.519c3.048,0,5.519-2.471,5.519-5.519
						c0-3.048-2.471-5.519-5.519-5.519C79.516,191.827,77.045,194.298,77.045,197.346z"/>
					<path style="fill:#FFFFFF;" d="M60.443,197.346c0,3.048,2.471,5.519,5.519,5.519c3.048,0,5.519-2.471,5.519-5.519
						c0-3.048-2.471-5.519-5.519-5.519C62.914,191.827,60.443,194.298,60.443,197.346z"/>
				</g>
			</g>
			<g>
				<path style="fill:#4DC7B8;stroke:#318478;stroke-miterlimit:10;" d="M105.404,194.375h48.983c3.348,0,6.061,2.714,6.061,6.061
					v27.53c0,3.348-2.714,6.061-6.061,6.061h-6.554c-0.187,2.461-0.091,6.855,2.335,10.28c0,0-15.85-1.473-20.003-10.28h-24.761
					c-3.348,0-6.061-2.714-6.061-6.061v-27.53C99.343,197.089,102.056,194.375,105.404,194.375z"/>
				<g>
					<path style="fill:#FFFFFF;" d="M118.812,213.609c0,3.048-2.471,5.519-5.519,5.519c-3.048,0-5.519-2.471-5.519-5.519
						c0-3.048,2.471-5.519,5.519-5.519C116.341,208.09,118.812,210.561,118.812,213.609z"/>
					<path style="fill:#FFFFFF;" d="M135.414,213.609c0,3.048-2.471,5.519-5.519,5.519c-3.048,0-5.519-2.471-5.519-5.519
						c0-3.048,2.471-5.519,5.519-5.519C132.943,208.09,135.414,210.561,135.414,213.609z"/>
					<path style="fill:#FFFFFF;" d="M152.016,213.609c0,3.048-2.471,5.519-5.519,5.519c-3.048,0-5.519-2.471-5.519-5.519
						c0-3.048,2.471-5.519,5.519-5.519C149.546,208.09,152.016,210.561,152.016,213.609z"/>
				</g>
			</g>
		</g>
		<g>
			
				<line style="fill:none;stroke:#1F2F6D;stroke-width:4;stroke-linecap:round;stroke-linejoin:round;stroke-miterlimit:10;" x1="417.811" y1="391.043" x2="450.899" y2="391.043"/>
			<path style="fill:none;stroke:#1F2F6D;stroke-width:4;stroke-linecap:round;stroke-linejoin:round;stroke-miterlimit:10;" d="
				M453.695,391.043"/>
			<path style="fill:none;stroke:#1F2F6D;stroke-width:4;stroke-linecap:round;stroke-linejoin:round;stroke-miterlimit:10;" d="
				M441.811,391.043"/>
			
				<line style="fill:none;stroke:#1F2F6D;stroke-width:4;stroke-linecap:round;stroke-linejoin:round;stroke-miterlimit:10;" x1="75.055" y1="391.043" x2="63.754" y2="391.043"/>
			
				<line style="fill:none;stroke:#1F2F6D;stroke-width:4;stroke-linecap:round;stroke-linejoin:round;stroke-miterlimit:10;" x1="98.239" y1="391.043" x2="82.977" y2="391.043"/>
			
				<line style="fill:none;stroke:#1F2F6D;stroke-width:4;stroke-linecap:round;stroke-linejoin:round;stroke-miterlimit:10;" x1="410.463" y1="391.043" x2="105.098" y2="391.043"/>
		</g>
	</g>
</g>
<g id="DESIGNED_BY_FREEPIK">
	<g>
		<g id="XMLID_226_">
			<g id="XMLID_245_">
				<path id="XMLID_253_" style="fill:#A5B7C6;" d="M260.103,465.465c-0.432,0.443-0.803,0.932-1.108,1.453l-0.465-0.241
					c-0.068-0.297-0.35-0.502-0.66-0.466c-0.33,0.039-0.566,0.339-0.529,0.67c0.039,0.331,0.34,0.567,0.67,0.528
					c0.066-0.007,0.127-0.025,0.184-0.052l0.451,0.234c-0.25,0.554-0.432,1.139-0.539,1.743l0.748,0.132
					c0.228-1.306,0.85-2.507,1.791-3.473L260.103,465.465z"/>
				<path id="XMLID_252_" style="fill:#A5B7C6;" d="M265.592,463.163c-0.172,0-0.342,0.006-0.51,0.017l-0.074-0.626
					c0.188-0.149,0.297-0.389,0.266-0.645c-0.045-0.393-0.402-0.674-0.795-0.628c-0.393,0.046-0.674,0.402-0.627,0.796
					c0.029,0.254,0.189,0.461,0.404,0.564l0.072,0.624c-0.713,0.116-1.402,0.332-2.059,0.646l0.326,0.685
					c0.934-0.447,1.941-0.674,2.996-0.674c0.496,0,0.992,0.053,1.475,0.158l0.16-0.741
					C266.691,463.222,266.142,463.163,265.592,463.163z"/>
				<path id="XMLID_251_" style="fill:#A5B7C6;" d="M272.193,465.71c0.332-0.04,0.566-0.341,0.525-0.672
					c-0.039-0.331-0.34-0.566-0.672-0.525c-0.309,0.038-0.535,0.304-0.529,0.608l-0.416,0.363c-0.418-0.43-0.891-0.813-1.408-1.14
					l-0.404,0.642c1.135,0.715,2.021,1.727,2.564,2.925l0.689-0.313c-0.25-0.554-0.566-1.071-0.941-1.545l0.402-0.351
					C272.064,465.715,272.129,465.719,272.193,465.71z"/>
				<path id="XMLID_250_" style="fill:#A5B7C6;" d="M265.045,473.371c-0.387,0.023-0.776,0.035-1.158,0.035
					c-0.879,0-1.732-0.061-2.479-0.18c-0.391-0.062-0.846-0.154-1.27-0.292c1.047,1.861,3.068,3.125,5.389,3.125
					c2.855,0,5.262-1.916,5.949-4.503c-0.682,0.449-1.506,0.825-2.459,1.122C267.838,473.047,266.463,473.286,265.045,473.371z"/>
				<path id="XMLID_246_" style="fill:#A5B7C6;" d="M265.592,464.68c-3.352,0-6.08,2.666-6.08,5.943
					c0,0.425,0.047,0.849,0.137,1.261c0.674,0.483,2.707,0.891,5.348,0.731c2.881-0.174,5.297-0.958,6.672-2.159
					c-0.004-0.194-0.02-0.39-0.045-0.581C271.244,466.913,268.65,464.68,265.592,464.68z M263.431,471.194
					c-1.019,0-1.85-0.83-1.85-1.85c0-1.021,0.83-1.851,1.85-1.851c1.02,0,1.85,0.83,1.85,1.851
					C265.281,470.364,264.451,471.194,263.431,471.194z M268.17,470.286c-0.75,0-1.361-0.61-1.361-1.36s0.611-1.36,1.361-1.36
					s1.359,0.61,1.359,1.36S268.92,470.286,268.17,470.286z"/>
			</g>
			<path id="XMLID_243_" style="fill:#A5B7C6;" d="M281.595,466.547c-0.295-0.116-0.807-0.31-1.383-0.238
				c-0.551,0.069-0.844,0.341-0.844,1.007v0.866h2.229v1.717h-2.229v5.455h-1.932v-5.455h-1.34v-1.717h1.34v-0.889
				c0-1.68,0.895-2.782,2.568-2.782c0.643,0,1.156,0.121,1.59,0.308V466.547z"/>
			<path id="XMLID_241_" style="fill:#A5B7C6;" d="M286.297,469.878c-0.176-0.029-0.357-0.046-0.525-0.046
				c-0.897,0-1.51,0.548-1.51,1.613v3.908h-1.932v-7.172h1.873v0.784c0.451-0.673,1.139-0.977,2.02-0.977
				c0.414,0,0.848,0.128,1.094,0.337L286.297,469.878z"/>
			<path id="XMLID_238_" style="fill:#A5B7C6;" d="M293.965,471.757c0,0.222-0.016,0.488-0.037,0.651h-5.084
				c0.207,1.036,0.932,1.487,1.842,1.487c0.623,0,1.295-0.252,1.814-0.689l1.133,1.243c-0.814,0.748-1.852,1.089-3.059,1.089
				c-2.197,0-3.723-1.496-3.723-3.753c0-2.258,1.48-3.797,3.627-3.797C292.543,467.989,293.957,469.522,293.965,471.757z
				 M288.849,471.091h3.176c-0.178-0.918-0.732-1.436-1.56-1.436C289.552,469.654,289.021,470.202,288.849,471.091z"/>
			<path id="XMLID_235_" style="fill:#A5B7C6;" d="M301.619,471.757c0,0.222-0.016,0.488-0.037,0.651h-5.086
				c0.207,1.036,0.934,1.487,1.844,1.487c0.621,0,1.295-0.252,1.813-0.689l1.133,1.243c-0.815,0.748-1.85,1.089-3.057,1.089
				c-2.199,0-3.723-1.496-3.723-3.753c0-2.258,1.48-3.797,3.627-3.797C300.197,467.989,301.611,469.522,301.619,471.757z
				 M296.504,471.091h3.176c-0.178-0.918-0.734-1.436-1.563-1.436C297.207,469.654,296.673,470.202,296.504,471.091z"/>
			<path id="XMLID_232_" style="fill:#A5B7C6;" d="M309.963,471.764c0,2.154-1.494,3.775-3.471,3.775
				c-0.961,0-1.643-0.378-2.109-0.933v3.708h-1.924v-10.133h1.887v0.792c0.467-0.585,1.154-0.984,2.139-0.984
				C308.469,467.989,309.963,469.61,309.963,471.764z M304.287,471.764c0,1.133,0.748,1.977,1.842,1.977
				c1.141,0,1.852-0.881,1.852-1.977c0-1.095-0.711-1.976-1.852-1.976C305.035,469.788,304.287,470.632,304.287,471.764z"/>
			<path id="XMLID_229_" style="fill:#A5B7C6;" d="M313.066,465.835c0,0.696-0.539,1.23-1.234,1.23c-0.697,0-1.228-0.533-1.228-1.23
				c0-0.695,0.531-1.243,1.228-1.243C312.527,464.592,313.066,465.14,313.066,465.835z M312.808,475.353h-1.932v-7.172h1.932
				V475.353z"/>
			<path id="XMLID_227_" style="fill:#A5B7C6;" d="M316.031,470.735l2.703-2.554h2.367l-3.479,3.375l3.502,3.797h-2.377
				l-2.717-2.901v2.901h-1.932v-10.658h1.932V470.735z"/>
		</g>
		<g>
			<path style="fill:#A5B7C6;" d="M184.412,475.289v-1.055c-0.527,0.718-1.391,1.23-2.387,1.23c-1.846,0-3.149-1.406-3.149-3.706
				c0-2.256,1.289-3.721,3.149-3.721c0.952,0,1.816,0.469,2.387,1.245v-3.765h1.099v9.771H184.412z M184.412,473.37v-3.208
				c-0.395-0.615-1.245-1.143-2.124-1.143c-1.421,0-2.27,1.172-2.27,2.739c0,1.567,0.85,2.725,2.27,2.725
				C183.167,474.483,184.017,473.985,184.412,473.37z"/>
			<path style="fill:#A5B7C6;" d="M186.931,471.744c0-2.051,1.465-3.706,3.486-3.706c2.139,0,3.398,1.67,3.398,3.794v0.278h-5.727
				c0.088,1.333,1.026,2.446,2.549,2.446c0.806,0,1.626-0.322,2.182-0.894l0.527,0.718c-0.703,0.703-1.655,1.084-2.812,1.084
				C188.44,475.465,186.931,473.956,186.931,471.744z M190.403,468.946c-1.509,0-2.256,1.274-2.315,2.358h4.644
				C192.717,470.25,192.014,468.946,190.403,468.946z"/>
			<path style="fill:#A5B7C6;" d="M194.607,474.352l0.571-0.791c0.469,0.542,1.362,1.011,2.329,1.011c1.084,0,1.67-0.513,1.67-1.216
				c0-1.714-4.38-0.659-4.38-3.281c0-1.099,0.952-2.036,2.636-2.036c1.202,0,2.051,0.454,2.623,1.025l-0.513,0.762
				c-0.424-0.513-1.201-0.894-2.109-0.894c-0.966,0-1.567,0.483-1.567,1.113c0,1.553,4.379,0.527,4.379,3.281
				c0,1.186-0.952,2.139-2.783,2.139C196.306,475.465,195.324,475.113,194.607,474.352z"/>
			<path style="fill:#A5B7C6;" d="M201.477,466.471c0-0.41,0.337-0.747,0.732-0.747c0.41,0,0.747,0.337,0.747,0.747
				c0,0.41-0.337,0.732-0.747,0.732C201.814,467.203,201.477,466.881,201.477,466.471z M201.667,475.289v-7.075h1.099v7.075H201.667
				z"/>
			<path style="fill:#A5B7C6;" d="M204.582,477.105l0.556-0.82c0.586,0.703,1.289,0.967,2.3,0.967c1.172,0,2.27-0.571,2.27-2.124
				v-1.011c-0.513,0.718-1.377,1.26-2.373,1.26c-1.846,0-3.149-1.377-3.149-3.662c0-2.271,1.289-3.677,3.149-3.677
				c0.952,0,1.802,0.469,2.373,1.245v-1.069h1.099v6.87c0,2.344-1.641,3.076-3.369,3.076
				C206.236,478.16,205.416,477.925,204.582,477.105z M209.708,473.253v-3.091c-0.381-0.615-1.23-1.143-2.109-1.143
				c-1.421,0-2.27,1.128-2.27,2.695c0,1.553,0.849,2.695,2.27,2.695C208.478,474.41,209.327,473.868,209.708,473.253z"/>
			<path style="fill:#A5B7C6;" d="M217.413,475.289v-4.629c0-1.245-0.63-1.641-1.582-1.641c-0.864,0-1.685,0.527-2.094,1.099v5.171
				h-1.099v-7.075h1.099v1.025c0.498-0.586,1.465-1.201,2.519-1.201c1.48,0,2.256,0.747,2.256,2.285v4.966H217.413z"/>
			<path style="fill:#A5B7C6;" d="M219.932,471.744c0-2.051,1.465-3.706,3.486-3.706c2.139,0,3.398,1.67,3.398,3.794v0.278h-5.727
				c0.088,1.333,1.025,2.446,2.548,2.446c0.806,0,1.626-0.322,2.183-0.894l0.527,0.718c-0.703,0.703-1.655,1.084-2.813,1.084
				C221.441,475.465,219.932,473.956,219.932,471.744z M223.404,468.946c-1.509,0-2.256,1.274-2.314,2.358h4.643
				C225.718,470.25,225.015,468.946,223.404,468.946z"/>
			<path style="fill:#A5B7C6;" d="M233.35,475.289v-1.055c-0.527,0.718-1.392,1.23-2.388,1.23c-1.845,0-3.149-1.406-3.149-3.706
				c0-2.256,1.289-3.721,3.149-3.721c0.952,0,1.817,0.469,2.388,1.245v-3.765h1.098v9.771H233.35z M233.35,473.37v-3.208
				c-0.396-0.615-1.245-1.143-2.124-1.143c-1.421,0-2.27,1.172-2.27,2.739c0,1.567,0.85,2.725,2.27,2.725
				C232.105,474.483,232.954,473.985,233.35,473.37z"/>
			<path style="fill:#A5B7C6;" d="M239.692,475.289v-9.771h1.099v3.765c0.571-0.776,1.421-1.245,2.388-1.245
				c1.845,0,3.149,1.465,3.149,3.721c0,2.3-1.304,3.706-3.149,3.706c-0.996,0-1.86-0.513-2.388-1.23v1.055H239.692z M242.9,474.483
				c1.436,0,2.285-1.157,2.285-2.725c0-1.567-0.85-2.739-2.285-2.739c-0.864,0-1.728,0.527-2.109,1.143v3.208
				C241.171,473.985,242.035,474.483,242.9,474.483z"/>
			<path style="fill:#A5B7C6;" d="M247.528,477.061c0.161,0.073,0.425,0.117,0.601,0.117c0.483,0,0.806-0.161,1.055-0.747
				l0.469-1.069l-2.959-7.148h1.186l2.359,5.801l2.344-5.801h1.201l-3.545,8.511c-0.425,1.024-1.143,1.421-2.08,1.436
				c-0.235,0-0.601-0.044-0.806-0.104L247.528,477.061z"/>
		</g>
	</g>
</g>
</svg>
